<?xml version="1.0" standalone="no"?>
<!DOCTYPE svg PUBLIC "-//W3C//DTD SVG 20010904//EN"
 "http://www.w3.org/TR/2001/REC-SVG-20010904/DTD/svg10.dtd">
<svg version="1.0" xmlns="http://www.w3.org/2000/svg"
 width="400.000000pt" height="223.000000pt" viewBox="0 0 400.000000 223.000000"
 preserveAspectRatio="xMidYMid meet">
<metadata>
Created by potrace 1.15, written by Peter Selinger 2001-2017
</metadata>
<g transform="translate(0.000000,223.000000) scale(0.100000,-0.100000)"
fill="#000000" stroke="none">
<path d="M2060 1740 l0 -350 240 0 240 0 0 50 0 50 -190 0 -190 0 0 105 0 105
160 0 160 0 0 45 0 45 -160 0 -160 0 0 100 0 100 185 0 185 0 0 50 0 50 -235
0 -235 0 0 -350z"/>
<path d="M2554 2073 c4 -10 68 -168 144 -350 l137 -333 41 0 40 0 142 343 c78
188 142 346 142 350 0 4 -23 7 -51 5 l-52 -3 -106 -262 c-59 -144 -109 -265
-112 -268 -4 -3 -55 116 -115 265 l-109 270 -54 0 c-46 0 -52 -2 -47 -17z"/>
<path d="M3260 1740 l0 -350 235 0 235 0 0 50 0 50 -185 0 -185 0 0 105 0 105
160 0 160 0 0 45 0 45 -160 0 -160 0 0 100 0 100 185 0 185 0 0 50 0 50 -235
0 -235 0 0 -350z"/>
<path d="M340 2070 c0 -5 -7 -10 -16 -10 -18 0 -44 -23 -44 -39 0 -6 -4 -11
-10 -11 -6 0 -10 -37 -10 -90 0 -90 0 -91 35 -125 19 -19 41 -35 50 -35 8 0
15 -4 15 -10 0 -5 -21 -10 -48 -10 -27 0 -57 -7 -70 -16 -12 -8 -22 -12 -22
-8 0 4 -11 -3 -25 -16 -14 -13 -25 -31 -25 -40 0 -8 -9 -22 -20 -30 -12 -8
-20 -26 -20 -42 0 -15 -4 -28 -10 -28 -5 0 -10 -18 -10 -40 0 -22 -4 -40 -10
-40 -6 0 -10 -52 -10 -135 0 -128 -1 -135 -20 -135 -11 0 -20 -4 -20 -10 0 -5
-12 -13 -26 -16 -26 -7 -26 -9 -21 -63 3 -31 11 -57 17 -59 5 -2 10 -9 10 -16
0 -7 8 -21 18 -32 9 -10 24 -32 32 -49 8 -16 20 -36 27 -42 13 -15 50 -17 55
-5 2 5 15 12 31 16 l27 6 0 -260 c0 -143 3 -260 8 -260 4 0 12 -10 17 -23 9
-20 17 -22 75 -22 62 0 65 1 79 30 10 21 16 25 19 15 10 -30 45 -50 87 -50 45
0 85 25 85 54 0 9 5 16 10 16 6 0 10 45 10 115 l0 115 618 2 617 3 3 28 c3 27
3 27 -57 27 l-61 0 -2 163 -3 162 -37 3 -38 3 0 60 0 60 -152 -3 -153 -3 -3
-57 -3 -58 -179 0 -179 0 -3 58 -3 57 -110 0 -110 0 -6 -60 c-3 -35 -6 19 -7
128 -1 117 -6 187 -12 187 -5 0 -10 24 -10 53 -1 28 -7 70 -15 92 -8 22 -15
41 -15 43 0 1 33 2 73 2 l73 0 14 -35 c8 -19 17 -35 22 -35 4 0 8 -7 8 -15 0
-8 5 -15 10 -15 6 0 10 -5 10 -10 0 -19 50 -62 65 -56 8 3 15 17 15 31 0 14 4
25 10 25 5 0 12 16 16 35 3 19 10 35 15 35 5 0 9 14 9 30 0 17 3 30 6 30 9 0
34 -28 34 -38 0 -5 14 -23 30 -40 17 -18 30 -34 30 -38 0 -10 28 -34 40 -34
18 0 40 27 40 49 0 11 5 23 10 26 6 3 10 17 10 31 0 13 5 24 10 24 6 0 10 14
10 30 0 23 4 30 20 30 11 0 20 -7 20 -15 0 -22 93 -125 113 -125 19 0 37 31
37 64 0 20 5 36 10 36 6 0 10 16 10 36 0 19 7 42 15 51 14 14 18 13 34 -6 10
-12 25 -21 32 -21 8 0 29 -18 48 -40 42 -48 61 -51 61 -10 0 17 5 30 10 30 6
0 10 32 10 75 l0 75 30 0 c17 0 30 -4 30 -10 0 -5 12 -13 28 -16 15 -4 34 -15
43 -26 9 -10 30 -18 48 -18 l31 0 0 105 c0 98 1 105 20 105 16 0 20 7 20 30 0
17 -4 30 -10 30 -5 0 -10 7 -10 16 0 14 -7 15 -42 10 -23 -4 -45 -10 -48 -15
-3 -4 -26 -14 -52 -22 -27 -7 -48 -17 -48 -21 0 -4 -11 -8 -24 -8 -14 0 -28
-4 -31 -10 -3 -5 -17 -10 -31 -10 -13 0 -24 -4 -24 -10 0 -5 -13 -10 -30 -10
-16 0 -30 -4 -30 -10 0 -5 -18 -10 -39 -10 -22 0 -41 -4 -43 -9 -1 -6 -23 -11
-48 -12 -25 -2 -47 -6 -50 -10 -3 -4 -38 -9 -78 -10 -39 -1 -72 -6 -72 -11 0
-4 -56 -8 -125 -8 -77 0 -125 4 -125 10 0 6 -30 10 -70 10 -40 0 -70 4 -70 10
0 6 -24 10 -54 10 -30 0 -58 5 -61 10 -3 6 -17 10 -30 10 -13 0 -27 5 -30 10
-3 6 -22 10 -41 10 -27 0 -34 4 -34 20 0 11 -4 20 -10 20 -5 0 -10 8 -10 18 0
10 -10 24 -21 32 -12 8 -27 21 -35 28 -15 15 -154 17 -154 2z m361 -240 c5 0
9 -16 9 -35 0 -19 5 -35 10 -35 6 0 10 -18 10 -40 0 -22 5 -40 10 -40 6 0 10
-4 10 -10 0 -5 -13 -10 -30 -10 -21 0 -30 -5 -30 -17 0 -15 -2 -15 -18 3 -10
10 -21 27 -25 37 -3 9 -13 17 -22 17 -8 0 -15 5 -15 11 0 5 -4 8 -8 5 -4 -2
-14 -1 -22 4 -10 6 -1 20 36 57 28 26 54 57 59 68 7 18 9 18 12 3 3 -10 9 -18
14 -18z m-281 -305 c0 -8 5 -15 10 -15 6 0 10 -33 10 -80 0 -47 4 -80 10 -80
21 0 10 -70 -14 -95 -24 -24 -25 -24 -31 -5 -4 11 -11 20 -16 20 -12 0 -12
137 1 145 6 3 10 33 10 66 0 33 4 59 10 59 6 0 10 -7 10 -15z"/>
<path d="M2200 975 c0 -158 1 -165 20 -165 18 0 20 7 20 71 0 65 2 73 29 100
34 33 43 35 65 13 12 -12 16 -36 16 -100 0 -83 0 -84 25 -84 25 0 25 1 25 91
0 86 -9 125 -34 141 -19 13 -81 9 -104 -8 l-22 -15 0 60 c0 54 -2 61 -20 61
-19 0 -20 -7 -20 -165z"/>
<path d="M1910 1105 c0 -24 3 -25 55 -25 l55 0 0 -135 0 -135 25 0 25 0 0 135
0 135 55 0 c52 0 55 1 55 25 l0 25 -135 0 -135 0 0 -25z"/>
<path d="M2810 970 l0 -160 110 0 110 0 0 25 c0 25 -1 25 -85 25 l-85 0 0 45
0 45 70 0 c68 0 70 1 70 25 0 24 -2 25 -70 25 l-70 0 0 40 0 40 85 0 c84 0 85
0 85 25 l0 25 -110 0 -110 0 0 -160z"/>
<path d="M3770 1090 c0 -29 -4 -40 -15 -40 -8 0 -15 -9 -15 -20 0 -11 7 -20
15 -20 12 0 15 -16 15 -88 0 -99 7 -112 60 -112 46 0 61 11 54 37 -5 18 -10
20 -29 13 -13 -5 -26 -6 -29 -3 -3 4 -6 39 -6 80 0 71 1 73 25 73 18 0 25 5
25 20 0 15 -7 20 -25 20 -22 0 -25 4 -25 40 0 36 -2 40 -25 40 -22 0 -25 -4
-25 -40z"/>
<path d="M2464 1016 c-30 -30 -34 -40 -34 -86 0 -46 4 -56 34 -86 30 -30 40
-34 86 -34 44 0 56 4 83 31 l31 32 -23 9 c-19 6 -29 4 -46 -12 -30 -29 -69
-26 -95 8 l-22 27 96 3 c107 3 111 7 82 76 -19 47 -51 66 -109 66 -42 0 -54
-5 -83 -34z"/>
<path d="M3023 1038 c3 -7 24 -62 48 -121 40 -100 45 -108 68 -105 22 3 31 18
72 121 l47 117 -26 0 c-25 0 -30 -7 -57 -80 -16 -44 -32 -80 -35 -80 -4 0 -21
35 -37 78 -27 68 -34 77 -58 80 -20 3 -26 0 -22 -10z"/>
<path d="M3302 1034 c-29 -20 -52 -66 -52 -104 0 -38 23 -84 52 -104 37 -26
111 -21 147 10 36 30 38 40 10 47 -13 3 -28 -2 -40 -14 -28 -28 -73 -25 -99 9
l-22 27 96 3 c95 3 96 3 96 28 0 33 -24 79 -52 98 -29 21 -107 21 -136 0z"/>
<path d="M3520 930 c0 -113 1 -120 20 -120 18 0 20 7 20 71 0 65 2 73 29 100
58 57 81 31 81 -90 0 -80 0 -81 25 -81 25 0 25 0 25 93 0 118 -11 141 -69 145
-27 2 -52 -3 -67 -13 -21 -14 -24 -14 -24 0 0 8 -9 15 -20 15 -19 0 -20 -7
-20 -120z"/>
<path d="M2380 502 c0 -180 4 -189 88 -184 19 2 22 6 16 25 -6 21 -6 21 13 -2
17 -20 29 -25 64 -23 24 0 65 1 92 2 l47 1 -5 57 c-13 131 -16 141 -42 162
-31 24 -92 26 -134 5 -25 -13 -28 -19 -19 -35 10 -19 13 -19 40 -5 40 21 66
19 84 -7 23 -33 20 -37 -22 -31 -54 7 -110 -18 -117 -54 -11 -49 -15 -55 -32
-51 -16 3 -18 19 -21 146 l-3 142 -24 0 -25 0 0 -148z"/>
<path d="M2120 480 l0 -160 25 0 c24 0 25 3 25 55 l0 55 63 0 c71 0 98 14 117
59 18 44 5 95 -31 125 -27 23 -39 26 -115 26 l-84 0 0 -160z"/>
<path d="M2730 440 l0 -120 25 0 c24 0 25 2 25 75 0 86 20 119 68 113 32 -4
40 -26 41 -120 1 -67 2 -68 27 -68 l27 0 -5 95 c-6 115 -21 145 -74 145 -19 0
-45 -5 -57 -11 -16 -9 -22 -9 -25 0 -2 6 -15 11 -28 11 l-24 0 0 -120z"/>
<path d="M2980 440 l0 -120 25 0 c25 0 25 1 25 78 0 90 16 116 67 110 l28 -3
3 -92 c3 -91 3 -93 27 -93 25 0 25 0 25 100 0 87 -3 103 -20 120 -24 24 -73
26 -112 6 -24 -13 -28 -13 -28 0 0 8 -9 14 -20 14 -19 0 -20 -7 -20 -120z"/>
<path d="M3264 541 c-113 -69 -35 -255 95 -226 30 6 81 46 81 63 0 19 -47 19
-59 0 -18 -29 -75 -24 -101 10 l-22 27 96 3 c95 3 96 3 96 28 0 89 -106 144
-186 95z"/>
<path d="M3470 440 l0 -120 25 0 c24 0 25 2 25 70 0 62 3 74 25 95 13 14 33
25 45 25 15 0 20 6 20 25 0 19 -5 25 -23 25 -12 0 -33 -7 -45 -16 -20 -14 -22
-14 -22 0 0 10 -9 16 -25 16 l-25 0 0 -120z"/>
<path d="M3643 544 c-29 -25 -38 -64 -19 -89 8 -11 38 -27 68 -35 41 -12 53
-20 53 -35 0 -26 -53 -32 -94 -11 -28 15 -31 15 -41 -4 -25 -46 104 -76 163
-37 20 13 27 26 27 51 0 41 -21 61 -83 76 -53 14 -64 24 -47 45 16 19 43 19
79 0 26 -13 30 -13 42 1 34 41 -103 76 -148 38z"/>
</g>
</svg>
